<mxfile host="65bd71144e" modified="2020-11-17T13:34:35.239Z" agent="5.0 (Macintosh; Intel Mac OS X 10_15_7) AppleWebKit/537.36 (KHTML, like Gecko) Code/1.51.1 Chrome/83.0.4103.122 Electron/9.3.3 Safari/537.36" etag="mVmW0muttgRaOFjCV8zN" version="13.6.5">
    <diagram id="_pftl7_MwalOFCqmaLm6" name="Page-1">
        <mxGraphModel dx="600" dy="430" grid="1" gridSize="10" guides="1" tooltips="1" connect="1" arrows="1" fold="1" page="1" pageScale="1" pageWidth="827" pageHeight="1169" math="0" shadow="0">
            <root>
                <mxCell id="0"/>
                <mxCell id="1" parent="0"/>
                <mxCell id="2" value="&lt;font style=&quot;font-size: 10px&quot;&gt;&lt;b&gt;Landing page&amp;nbsp;&lt;/b&gt;&lt;br&gt;App.js&amp;nbsp;&lt;br&gt;Components:&lt;br&gt;&amp;lt;Input/&amp;gt;&amp;nbsp;&lt;br&gt;&amp;lt;display/Forecast/&amp;gt;&lt;br&gt;&lt;/font&gt;" style="rounded=1;whiteSpace=wrap;html=1;fillColor=#0050ef;strokeColor=#001DBC;fontColor=#ffffff;opacity=70;glass=0;sketch=0;shadow=1;" parent="1" vertex="1">
                    <mxGeometry x="50" y="60" width="130" height="110" as="geometry"/>
                </mxCell>
                <mxCell id="3" value="&lt;font style=&quot;font-size: 10px&quot;&gt;displayForecast.js&lt;br&gt;PROP:&amp;nbsp;&lt;br&gt;{data}&amp;nbsp;&lt;br&gt;&amp;nbsp;RENDER:&amp;nbsp;&lt;br&gt;&amp;lt;h1/&amp;gt;&amp;nbsp;&lt;br&gt;&amp;lt; h2/&amp;gt;&amp;nbsp;&lt;br&gt;&amp;lt;img/&amp;gt;&amp;nbsp;&lt;br&gt;&lt;/font&gt;" style="rounded=1;whiteSpace=wrap;html=1;fillColor=#1ba1e2;strokeColor=#006EAF;fontColor=#ffffff;opacity=70;glass=0;sketch=0;shadow=1;" parent="1" vertex="1">
                    <mxGeometry x="260" y="270" width="130" height="110" as="geometry"/>
                </mxCell>
                <mxCell id="6" style="edgeStyle=orthogonalEdgeStyle;rounded=0;orthogonalLoop=1;jettySize=auto;html=1;exitX=0.5;exitY=1;exitDx=0;exitDy=0;" parent="1" source="5" target="3" edge="1">
                    <mxGeometry relative="1" as="geometry"/>
                </mxCell>
                <mxCell id="5" value="&lt;font style=&quot;font-size: 10px&quot;&gt;&lt;b&gt;Search function&lt;/b&gt; &lt;br&gt;Input.js&lt;br&gt;on change&lt;br&gt;&amp;lt;Input/&amp;gt;&lt;br&gt;&lt;/font&gt;" style="rounded=1;whiteSpace=wrap;html=1;fillColor=#0050ef;strokeColor=#001DBC;fontColor=#ffffff;opacity=70;glass=0;sketch=0;shadow=1;" parent="1" vertex="1">
                    <mxGeometry x="260" y="60" width="130" height="110" as="geometry"/>
                </mxCell>
                <mxCell id="9" value="" style="endArrow=none;html=1;exitX=0.99;exitY=0.367;exitDx=0;exitDy=0;exitPerimeter=0;" edge="1" parent="1" source="2">
                    <mxGeometry width="50" height="50" relative="1" as="geometry">
                        <mxPoint x="210" y="150" as="sourcePoint"/>
                        <mxPoint x="260" y="100" as="targetPoint"/>
                    </mxGeometry>
                </mxCell>
            </root>
        </mxGraphModel>
    </diagram>
</mxfile>